<?xml version="1.0" encoding="utf-8"?>
<!-- Generator: Adobe Illustrator 17.0.0, SVG Export Plug-In . SVG Version: 6.00 Build 0)  -->
<!DOCTYPE svg PUBLIC "-//W3C//DTD SVG 1.1//EN" "http://www.w3.org/Graphics/SVG/1.1/DTD/svg11.dtd">
<svg version="1.1" id="Layer_1" xmlns="http://www.w3.org/2000/svg" xmlns:xlink="http://www.w3.org/1999/xlink" x="0px" y="0px"
	 width="850.394px" height="850.394px" viewBox="0 0 850.394 850.394" enable-background="new 0 0 850.394 850.394"
	 xml:space="preserve">
<g>
	<g>
		<path d="M250.62,691.275l-7.06,2.247l8.459-43.596l0.751-3.75c0.427-2.066,0.635-3.782,0.635-5.143
			c0-3.141-1.244-4.709-3.744-4.709c-2.358,0-5.22,1.587-8.575,4.767c-3.355,3.174-6.891,7.766-10.596,13.763
			c-2.435,3.854-4.521,7.571-6.27,11.14c-1.749,3.569-3.355,7.377-4.819,11.406c-1.464,4.035-2.876,8.66-4.236,13.873l-6.645,2.247
			l11.037-59.341l10.285-4.391l-9.314,38.88c4.78-11.069,10.259-20.149,16.438-27.261c6.179-7.105,11.723-10.654,16.658-10.654
			c5.35,0,8.031,3.031,8.031,9.1c0,2.073-0.531,5.751-1.606,11.036l-3.536,15.959c6.93-13.284,12.785-22.656,17.565-28.116
			c4.793-5.466,9.534-8.193,14.249-8.193c2.643,0,4.715,0.784,6.218,2.351c1.49,1.574,2.241,3.821,2.241,6.749
			c0,2.358-0.712,6.431-2.137,12.215l-3.316,13.174l-1.075,4.178c-0.997,4.43-1.503,7.714-1.503,9.858
			c0,2.286,0.389,4.119,1.179,5.512c0.79,1.393,1.788,2.092,3.005,2.092c2.28,0,5.855-2.643,10.713-7.928l1.606,1.503l-0.972,1.179
			c-4.067,4.78-7.086,8.012-9.055,9.689c-1.956,1.678-3.757,2.52-5.402,2.52c-2.215,0-4.093-1.127-5.622-3.374
			c-1.541-2.247-2.306-5.052-2.306-8.407c0-2.073,0.466-5.466,1.386-10.182l3.964-22.17l0.648-3.854
			c0.427-2.144,0.648-3.86,0.648-5.143c0-1.289-0.402-2.319-1.179-3.109c-0.79-0.784-1.865-1.179-3.212-1.179
			c-1.58,0-3.303,0.661-5.194,1.982c-1.904,1.321-3.912,3.342-6.062,6.056c-2.137,2.714-4.534,6.283-7.176,10.706
			c-3.562,6.075-6.464,11.73-8.679,16.982C254.83,677.188,252.693,683.632,250.62,691.275z"/>
		<path d="M332.682,629.79l-9.43,35.24c-1.567,5.784-2.358,10.428-2.358,13.925c0,2.286,0.389,4.145,1.179,5.57
			c0.79,1.431,1.826,2.144,3.109,2.144c2.215,0,5.738-2.643,10.596-7.928l1.723,1.503l-1.075,1.179
			c-4.067,4.78-7.073,8.012-9.003,9.689c-1.917,1.678-3.705,2.52-5.35,2.52c-2.215,0-4.093-1.127-5.622-3.374
			c-1.541-2.247-2.306-5.052-2.306-8.407c0-2.144,0.427-5.538,1.282-10.182l6.749-37.488L332.682,629.79z M335.778,587.801
			c1.865,0,3.355,0.57,4.508,1.71c1.14,1.146,1.71,2.643,1.71,4.501c0,1.788-0.609,3.284-1.826,4.501
			c-1.205,1.211-2.668,1.82-4.391,1.82c-1.632,0-3.096-0.648-4.391-1.93c-1.282-1.282-1.917-2.746-1.917-4.391
			c0-1.716,0.596-3.18,1.814-4.391C332.5,588.403,334.003,587.801,335.778,587.801z"/>
		<path d="M382.696,541.524l-29.133,126.719c1.632-3.854,3.601-7.565,5.881-11.14c2.293-3.569,4.897-7.047,7.824-10.441
			s5.751-6.159,8.459-8.303c3.497-2.785,7.021-4.858,10.557-6.211c3.536-1.36,7.513-2.144,11.943-2.358l-1.93,8.569
			c-2.137-0.427-3.744-0.641-4.819-0.641c-8.433,0-16.283,4.249-23.563,12.746c2.928,7.856,6.036,14.923,9.314,21.205
			c1.852,3.646,3.485,6.555,4.871,8.731c1.399,2.183,2.681,3.77,3.86,4.767c1.179,1.004,2.345,1.503,3.485,1.503
			c2.707,0,6.14-2.176,10.285-6.535l0.855-0.965l1.386,1.606c-7.202,8.718-12.461,13.07-15.739,13.07
			c-2.215,0-4.288-0.965-6.218-2.895c-1.93-1.924-4.171-5.246-6.749-9.961c-4.495-8.206-8.174-15.991-11.037-23.349
			c-6.71,11.069-10.998,22.248-12.85,33.531l-6.956,2.247l28.705-146.435L382.696,541.524z"/>
		<path d="M488.1,675.847l2.15,1.613c-7.15,11.069-15.855,16.6-26.141,16.6c-5.428,0-9.923-1.82-13.498-5.46
			c-3.575-3.646-5.35-8.251-5.35-13.822v-0.855c-3.148,6.211-7.047,11.121-11.684,14.728s-9.391,5.408-14.249,5.408
			c-3.99,0-7.15-1.069-9.482-3.212c-2.319-2.144-3.472-5.033-3.472-8.679c0-6.853,3.744-12.87,11.244-18.044
			c7.5-5.181,17.889-8.912,31.167-11.198c0.142-0.57,0.272-1.069,0.376-1.496c0.117-0.427,0.168-0.68,0.168-0.751
			c0.855-3.497,1.282-6.036,1.282-7.604c0-3.141-0.751-5.518-2.254-7.125c-1.49-1.606-3.679-2.409-6.529-2.409
			c-3.925,0-7.345,1.412-10.233,4.229c-2.889,2.824-4.34,6.088-4.34,9.799c0,1.004,0.117,1.969,0.324,2.895
			c-1.075,0.214-1.93,0.317-2.565,0.317c-1.36,0-2.5-0.46-3.433-1.393c-0.933-0.926-1.399-2.066-1.399-3.426
			c0-2.429,1.01-4.819,3.005-7.176c1.995-2.358,4.663-4.249,7.979-5.674c3.316-1.431,6.878-2.144,10.661-2.144
			c8.847,0,13.925,3.821,15.208,11.458c2.72-3.782,5.855-6.71,9.43-8.783c3.562-2.066,7.241-3.102,11.037-3.102
			c3.07,0,5.505,0.784,7.332,2.351c1.826,1.574,2.733,3.75,2.733,6.535c0,3.646-1.516,7.5-4.56,11.574
			c-3.031,4.067-7.112,7.818-12.254,11.244c-5.143,3.426-10.752,6.108-16.827,8.031v1.075c0,5.071,1.36,9.281,4.08,12.636
			c2.707,3.362,6.023,5.039,9.961,5.039C475.172,689.028,481.895,684.636,488.1,675.847z M447.827,656.035
			c-5.998,0.57-12.358,2.675-19.068,6.321c-4.145,2.215-7.448,4.961-9.91,8.245c-2.461,3.284-3.692,6.645-3.692,10.072
			c0,2.358,0.803,4.372,2.409,6.049c1.606,1.678,3.51,2.52,5.726,2.52c3.433,0,6.71-1.354,9.858-4.074
			c3.148-2.714,5.998-6.6,8.575-11.671C444.291,668.425,446.324,662.602,447.827,656.035z M453.928,667.712
			c4.223-1.859,7.461-3.536,9.754-5.039c2.28-1.496,4.78-3.64,7.5-6.425c6.568-6.71,9.845-12.604,9.845-17.675
			c0-1.503-0.453-2.694-1.386-3.588c-0.933-0.894-2.254-1.341-3.964-1.341c-2.137,0-4.391,0.874-6.749,2.623
			c-2.358,1.755-4.469,4.236-6.321,7.448c-2.358,4.067-4.301,8.232-5.842,12.481C455.236,660.445,454.291,664.28,453.928,667.712z"
			/>
		<path d="M491.636,685.601l5.998-7.073c3.148,7.429,8.135,11.14,15,11.14c3.562,0,6.619-1.159,9.158-3.484
			c2.526-2.319,3.795-5.013,3.795-8.083c0-2.215-0.609-4.106-1.814-5.68c-1.218-1.567-4.106-4.21-8.679-7.928
			c-4.21-3.426-7.06-6.121-8.524-8.083c-1.464-1.962-2.189-4.236-2.189-6.801c0-3.361,0.984-6.464,2.94-9.32
			c1.969-2.856,4.599-5.162,7.876-6.911c3.29-1.749,6.749-2.623,10.389-2.623c3.212,0,5.907,0.803,8.096,2.409
			c2.176,1.606,3.264,3.659,3.264,6.159c0,3.284-1.399,5.531-4.184,6.749c-0.427-3.355-1.697-5.985-3.795-7.876
			c-2.111-1.891-4.806-2.837-8.096-2.837c-2.928,0-5.479,0.946-7.656,2.837s-3.264,4.055-3.264,6.483
			c0,2.999,1.852,5.959,5.57,8.886l6.218,5.039c6.062,4.786,9.094,9.676,9.094,14.677c0,3.711-1.049,7.196-3.148,10.441
			c-2.111,3.251-4.974,5.836-8.575,7.766s-7.409,2.895-11.412,2.895C501.351,694.384,495.989,691.456,491.636,685.601z"/>
		<path d="M543.814,693.522l28.485-146.538l11.257-5.46l-29.677,130.469c0.285-0.499,0.427-0.823,0.427-0.965l2.461-5.57
			c4.21-9.566,9.495-17.85,15.855-24.852c5.998-6.496,11.529-9.748,16.607-9.748c2.707,0,4.884,0.874,6.529,2.623
			c1.645,1.755,2.461,4.093,2.461,7.021c0,1.639-0.389,3.964-1.166,6.963l-1.075,4.495l-3.329,13.07l-0.959,4.178
			c-1.075,4.288-1.606,7.571-1.606,9.858s0.389,4.119,1.179,5.512c0.79,1.393,1.826,2.092,3.109,2.092
			c2.215,0,5.738-2.643,10.596-7.928l1.606,1.503l-0.959,1.179c-4.067,4.78-7.086,8.012-9.055,9.689
			c-1.956,1.678-3.731,2.52-5.298,2.52c-2.215,0-4.106-1.179-5.674-3.536c-1.58-2.358-2.358-5.104-2.358-8.245
			c0-1.93,0.466-5.324,1.386-10.182l4.08-22.708c0.635-3.355,0.959-5.855,0.959-7.494c0-1.503-0.389-2.643-1.179-3.433
			c-0.79-0.784-1.852-1.179-3.213-1.179c-2.643,0-5.674,1.554-9.106,4.663c-3.433,3.102-6.878,7.409-10.337,12.908
			s-6.477,11.373-9.055,17.617c-2.565,6.25-4.495,12.662-5.777,19.23L543.814,693.522z"/>
		<path d="M634.01,629.79l-9.43,35.24c-1.567,5.784-2.358,10.428-2.358,13.925c0,2.286,0.389,4.145,1.179,5.57
			c0.79,1.431,1.826,2.144,3.109,2.144c2.215,0,5.738-2.643,10.596-7.928l1.723,1.503l-1.075,1.179
			c-4.067,4.78-7.073,8.012-9.003,9.689c-1.917,1.678-3.705,2.52-5.35,2.52c-2.215,0-4.093-1.127-5.622-3.374
			c-1.542-2.247-2.306-5.052-2.306-8.407c0-2.144,0.427-5.538,1.282-10.182l6.749-37.488L634.01,629.79z M637.106,587.801
			c1.865,0,3.355,0.57,4.508,1.71c1.14,1.146,1.71,2.643,1.71,4.501c0,1.788-0.609,3.284-1.826,4.501
			c-1.205,1.211-2.668,1.82-4.391,1.82c-1.632,0-3.096-0.648-4.391-1.93c-1.282-1.282-1.917-2.746-1.917-4.391
			c0-1.716,0.596-3.18,1.813-4.391C633.829,588.403,635.331,587.801,637.106,587.801z"/>
	</g>
	<g>
		<path d="M628.208,389.477l11.033,8.275c-36.787,57.041-81.668,85.553-134.678,85.553c-27.941,0-51.149-9.384-69.526-28.137
			c-18.41-18.769-27.615-42.499-27.615-71.207v-4.423c-16.19,32.021-36.232,57.318-60.158,75.891
			c-23.926,18.589-48.374,27.876-73.41,27.876c-20.597,0-36.885-5.516-48.831-16.549c-11.947-11.049-17.953-25.95-17.953-44.719
			c0-35.318,19.324-66.311,57.971-92.995c38.647-26.668,92.179-45.894,160.595-57.677c0.751-2.938,1.404-5.516,1.958-7.72
			c0.555-2.22,0.816-3.493,0.816-3.868c4.407-18.018,6.626-31.091,6.626-39.186c0-16.19-3.852-28.431-11.588-36.705
			c-7.736-8.275-18.965-12.42-33.686-12.42c-20.238,0-37.799,7.263-52.683,21.804c-14.917,14.542-22.359,31.368-22.359,50.496
			c0,5.157,0.555,10.135,1.632,14.901c-5.516,1.11-9.923,1.665-13.22,1.665c-7.018,0-12.893-2.399-17.659-7.181
			c-4.798-4.782-7.181-10.674-7.181-17.659c0-12.502,5.125-24.84,15.439-36.983c10.315-12.143,24.024-21.886,41.128-29.247
			c17.104-7.361,35.416-11.049,54.903-11.049c45.632,0,71.778,19.699,78.372,59.064c14.003-19.503,30.193-34.583,48.57-45.257
			c18.41-10.674,37.342-16.011,56.861-16.011c15.831,0,28.431,4.048,37.799,12.143c9.401,8.095,14.101,19.324,14.101,33.669
			c0,18.769-7.834,38.631-23.469,59.603c-15.635,20.972-36.721,40.296-63.193,57.955c-26.505,17.659-55.392,31.466-86.663,41.405
			v5.516c0,26.129,6.985,47.836,20.988,65.119c13.97,17.3,31.074,25.95,51.312,25.95
			C561.619,457.37,596.187,434.734,628.208,389.477z M420.674,287.375c-30.911,2.954-63.65,13.791-98.25,32.56
			c-21.315,11.408-38.353,25.574-51.051,42.499s-19.03,34.224-19.03,51.883c0,12.143,4.145,22.539,12.404,31.189
			c8.291,8.65,18.149,12.959,29.54,12.959c17.659,0,34.6-6.985,50.79-20.972c16.19-13.97,30.911-34.029,44.131-60.158
			C402.461,351.221,412.971,321.224,420.674,287.375z M452.141,347.532c21.706-9.564,38.451-18.214,50.235-25.934
			c11.751-7.736,24.644-18.769,38.615-33.131c33.849-34.567,50.79-64.923,50.79-91.069c0-7.72-2.383-13.873-7.181-18.475
			c-4.766-4.602-11.588-6.904-20.401-6.904c-11.065,0-22.653,4.504-34.796,13.513c-12.143,9.025-22.979,21.804-32.543,38.37
			c-12.143,20.972-22.196,42.401-30.095,64.303C458.865,310.093,453.969,329.874,452.141,347.532z"/>
	</g>
</g>
</svg>
