<svg xmlns="http://www.w3.org/2000/svg" xmlns:xlink="http://www.w3.org/1999/xlink">

<symbol id="facebook" fill-rule="evenodd" clip-rule="evenodd" stroke-linejoin="round" stroke-miterlimit="1.414"><path d="M15.117 0H.883C.395 0 0 .395 0 .883v14.234c0 .488.395.883.883.883h7.663V9.804H6.46V7.39h2.086V5.607c0-2.066 1.262-3.19 3.106-3.19.883 0 1.642.064 1.863.094v2.16h-1.28c-1 0-1.195.48-1.195 1.18v1.54h2.39l-.31 2.42h-2.08V16h4.077c.488 0 .883-.395.883-.883V.883C16 .395 15.605 0 15.117 0" fill-rule="nonzero"/></symbol>

<symbol id="flickr" fill-rule="evenodd" clip-rule="evenodd" stroke-linejoin="round" stroke-miterlimit="1.414"><path d="M0 8c0 2.05 1.662 3.71 3.71 3.71 2.05 0 3.713-1.66 3.713-3.71S5.76 4.29 3.71 4.29C1.663 4.29 0 5.95 0 8zm8.577 0c0 2.05 1.662 3.71 3.712 3.71C14.33 11.71 16 10.05 16 8s-1.662-3.71-3.71-3.71c-2.05 0-3.713 1.66-3.713 3.71z"/></symbol>

<symbol id="etsy" fill-rule="evenodd" clip-rule="evenodd" stroke-linejoin="round" stroke-miterlimit="1.414"><path d="M6.547,3.125v6.008c0,0,2.117,0,3.25-0.086c0.891-0.156,1.055-0.242,1.219-1.133l0.328-1.305h0.969l-0.164,2.852 l0.086,2.922h-0.977l-0.242-1.141c-0.242-0.812-0.57-0.977-1.219-1.055c-0.812-0.086-3.25-0.086-3.25-0.086v5.039 c0,0.969,0.492,1.383,1.625,1.383h3.414c1.055,0,2.109-0.086,2.766-1.625l0.883-1.953h0.82c-0.086,0.406-0.492,3.984-0.57,4.789 c0,0-3.086-0.078-4.383-0.078H5.25l-3.492,0.078v-0.883l1.133-0.25c0.82-0.164,1.062-0.406,1.062-1.055 c0,0,0.086-2.195,0.086-5.852c0-3.648-0.086-5.844-0.086-5.844c0-0.727-0.242-0.891-1.062-1.055L1.758,2.555V1.664l3.414,0.07h6.5 c1.297,0,3.484-0.234,3.484-0.234s-0.078,1.375-0.164,4.625h-0.891l-0.328-1.141c-0.32-1.461-0.805-2.188-1.703-2.188H6.961 C6.547,2.797,6.547,2.875,6.547,3.125z M19.703,3.766h0.977V7.18l3.336-0.164l-0.164,1.547l-3.25-0.25v6.016 c0,1.703,0.57,2.359,1.547,2.359c0.883,0,1.539-0.492,1.781-0.898l0.484,0.57c-0.484,1.133-1.859,1.703-3.164,1.703 c-1.617,0-2.93-0.969-2.93-2.836V8.398h-1.938V7.586C18.008,7.422,19.219,6.445,19.703,3.766z M26.695,14.242l0.648,1.547 c0.242,0.648,0.812,1.305,2.109,1.305c1.383,0,1.953-0.734,1.953-1.625c0-2.766-5.445-1.953-5.445-5.688c0-2.109,1.703-3.094,3.898-3.094c0.977,0,2.438,0.164,3.172,0.492c-0.164,0.812-0.25,1.867-0.25,2.68l-0.805,0.078l-0.57-1.625 c-0.164-0.398-0.82-0.727-1.625-0.727c-0.977,0-1.953,0.406-1.953,1.461c0,2.516,5.609,1.953,5.609,5.688c0,2.117-1.867,3.25-4.148,3.25c-1.703,0-3.414-0.656-3.414-0.656c0.164-0.969,0.086-2.023,0-3.086H26.695z M33.031,22.039 c0.242-0.891,0.406-2.023,0.57-3.086l0.891-0.078l0.328,1.703c0.078,0.406,0.32,0.734,0.969,0.734c1.055,0,2.438-0.648,3.742-2.922 c-0.578-1.383-2.281-5.844-3.828-9.258c-0.406-0.898-0.484-0.977-1.047-1.141l-0.414-0.156v-0.82l2.445,0.086l3-0.164V7.75 l-0.734,0.164c-0.57,0.078-0.805,0.398-0.805,0.727c0,0.086,0,0.164,0.078,0.328c0.156,0.492,1.461,4.141,2.438,6.578c0.805-1.703,2.352-5.523,2.594-6.172c0.086-0.328,0.164-0.406,0.164-0.648c0-0.414-0.242-0.656-0.805-0.812L42.039,7.75V6.938 l2.281,0.078l2.109-0.078V7.75l-0.406,0.32c-0.812,0.328-0.898,0.406-1.219,1.062l-3.57,8.359 c-2.117,4.797-4.312,5.203-5.852,5.203C34.406,22.695,33.672,22.445,33.031,22.039z"/></symbol>

<symbol id="github" fill-rule="evenodd" clip-rule="evenodd" stroke-linejoin="round" stroke-miterlimit="1.414"><path d="M8 0C3.58 0 0 3.582 0 8c0 3.535 2.292 6.533 5.47 7.59.4.075.547-.172.547-.385 0-.19-.007-.693-.01-1.36-2.226.483-2.695-1.073-2.695-1.073-.364-.924-.89-1.17-.89-1.17-.725-.496.056-.486.056-.486.803.056 1.225.824 1.225.824.714 1.223 1.873.87 2.33.665.072-.517.278-.87.507-1.07-1.777-.2-3.644-.888-3.644-3.953 0-.873.31-1.587.823-2.147-.09-.202-.36-1.015.07-2.117 0 0 .67-.215 2.2.82.64-.178 1.32-.266 2-.27.68.004 1.36.092 2 .27 1.52-1.035 2.19-.82 2.19-.82.43 1.102.16 1.915.08 2.117.51.56.82 1.274.82 2.147 0 3.073-1.87 3.75-3.65 3.947.28.24.54.73.54 1.48 0 1.07-.01 1.93-.01 2.19 0 .21.14.46.55.38C13.71 14.53 16 11.53 16 8c0-4.418-3.582-8-8-8"/></symbol>

<symbol id="instagram" fill-rule="evenodd" clip-rule="evenodd" stroke-linejoin="round" stroke-miterlimit="1.414"><path d="M8 0C5.827 0 5.555.01 4.702.048 3.85.088 3.27.222 2.76.42c-.526.204-.973.478-1.417.923-.445.444-.72.89-.923 1.417-.198.51-.333 1.09-.372 1.942C.008 5.555 0 5.827 0 8s.01 2.445.048 3.298c.04.852.174 1.433.372 1.942.204.526.478.973.923 1.417.444.445.89.72 1.417.923.51.198 1.09.333 1.942.372.853.04 1.125.048 3.298.048s2.445-.01 3.298-.048c.852-.04 1.433-.174 1.942-.372.526-.204.973-.478 1.417-.923.445-.444.72-.89.923-1.417.198-.51.333-1.09.372-1.942.04-.853.048-1.125.048-3.298s-.01-2.445-.048-3.298c-.04-.852-.174-1.433-.372-1.942-.204-.526-.478-.973-.923-1.417-.444-.445-.89-.72-1.417-.923-.51-.198-1.09-.333-1.942-.372C10.445.008 10.173 0 8 0zm0 1.44c2.136 0 2.39.01 3.233.048.78.036 1.203.166 1.485.276.374.145.64.318.92.598.28.28.453.546.598.92.11.282.24.705.276 1.485.038.844.047 1.097.047 3.233s-.01 2.39-.05 3.233c-.04.78-.17 1.203-.28 1.485-.15.374-.32.64-.6.92-.28.28-.55.453-.92.598-.28.11-.71.24-1.49.276-.85.038-1.1.047-3.24.047s-2.39-.01-3.24-.05c-.78-.04-1.21-.17-1.49-.28-.38-.15-.64-.32-.92-.6-.28-.28-.46-.55-.6-.92-.11-.28-.24-.71-.28-1.49-.03-.84-.04-1.1-.04-3.23s.01-2.39.04-3.24c.04-.78.17-1.21.28-1.49.14-.38.32-.64.6-.92.28-.28.54-.46.92-.6.28-.11.7-.24 1.48-.28.85-.03 1.1-.04 3.24-.04zm0 2.452c-2.27 0-4.108 1.84-4.108 4.108 0 2.27 1.84 4.108 4.108 4.108 2.27 0 4.108-1.84 4.108-4.108 0-2.27-1.84-4.108-4.108-4.108zm0 6.775c-1.473 0-2.667-1.194-2.667-2.667 0-1.473 1.194-2.667 2.667-2.667 1.473 0 2.667 1.194 2.667 2.667 0 1.473-1.194 2.667-2.667 2.667zm5.23-6.937c0 .53-.43.96-.96.96s-.96-.43-.96-.96.43-.96.96-.96.96.43.96.96z"/></symbol>

<symbol id="twitter" fill-rule="evenodd" clip-rule="evenodd" stroke-linejoin="round" stroke-miterlimit="1.414"><path d="M16 3.038c-.59.26-1.22.437-1.885.517.677-.407 1.198-1.05 1.443-1.816-.634.37-1.337.64-2.085.79-.598-.64-1.45-1.04-2.396-1.04-1.812 0-3.282 1.47-3.282 3.28 0 .26.03.51.085.75-2.728-.13-5.147-1.44-6.766-3.42C.83 2.58.67 3.14.67 3.75c0 1.14.58 2.143 1.46 2.732-.538-.017-1.045-.165-1.487-.41v.04c0 1.59 1.13 2.918 2.633 3.22-.276.074-.566.114-.865.114-.21 0-.41-.02-.61-.058.42 1.304 1.63 2.253 3.07 2.28-1.12.88-2.54 1.404-4.07 1.404-.26 0-.52-.015-.78-.045 1.46.93 3.18 1.474 5.04 1.474 6.04 0 9.34-5 9.34-9.33 0-.14 0-.28-.01-.42.64-.46 1.2-1.04 1.64-1.7z" fill-rule="nonzero"/></symbol>

<symbol id="youtube" fill-rule="evenodd" clip-rule="evenodd" stroke-linejoin="round" stroke-miterlimit="1.414"><path d="M0 7.345c0-1.294.16-2.59.16-2.59s.156-1.1.636-1.587c.608-.637 1.408-.617 1.764-.684C3.84 2.36 8 2.324 8 2.324s3.362.004 5.6.166c.314.038.996.04 1.604.678.48.486.636 1.588.636 1.588S16 6.05 16 7.346v1.258c0 1.296-.16 2.59-.16 2.59s-.156 1.102-.636 1.588c-.608.638-1.29.64-1.604.678-2.238.162-5.6.166-5.6.166s-4.16-.037-5.44-.16c-.356-.067-1.156-.047-1.764-.684-.48-.487-.636-1.587-.636-1.587S0 9.9 0 8.605v-1.26zm6.348 2.73V5.58l4.323 2.255-4.32 2.24z"/></symbol>

</svg>
